<?xml version="1.0" encoding="UTF-8"?>
<!DOCTYPE svg PUBLIC "-//W3C//DTD SVG 1.1//EN" "http://www.w3.org/Graphics/SVG/1.1/DTD/svg11.dtd">
<!-- Creator: CorelDRAW -->
<svg xmlns="http://www.w3.org/2000/svg" xml:space="preserve" width="100%" height="100%" style="shape-rendering:geometricPrecision; text-rendering:geometricPrecision; image-rendering:optimizeQuality; fill-rule:evenodd; clip-rule:evenodd"
viewBox="0 0 18.161 19.431"
 xmlns:xlink="http://www.w3.org/1999/xlink">
 <defs>
  <style type="text/css">
   <![CDATA[
    .str0 {stroke:#373435;stroke-width:0.00762}
    .str4 {stroke:#373435;stroke-width:0.03528}
    .str3 {stroke:#373435;stroke-width:0.05292}
    .str2 {stroke:#373435;stroke-width:0.10583;stroke-linejoin:round}
    .str1 {stroke:#373435;stroke-width:0.14111;stroke-linejoin:round}
    .fil7 {fill:none}
    .fil0 {fill:#373435}
    .fil5 {fill:#D2E28B}
    .fil1 {fill:#FEFEFE}
    .fil4 {fill:#572F0C}
    .fil6 {fill:#CC441E}
    .fil3 {fill:#E9A747}
    .fil2 {fill:#373435;fill-rule:nonzero}
   ]]>
  </style>
 </defs>
 <g id="Layer_x0020_1">
  <metadata id="CorelCorpID_0Corel-Layer"/>
  <path class="fil0 str0" d="M0.45506 0.6379l4.5384 0c0,0.06613 0,0.13226 0,0.1984 -0.28108,0.07439 -0.44642,0.16531 -0.496,0.2728 0,1.14906 0,2.24853 0,3.3976 0.12399,0.0992 0.28105,0.2108 0.4712,0.2108l0 0.24688 -1.8352 0.00112c0,-0.06614 0,-0.16947 0,-0.2356 0.2193,-0.0288 0.46745,-0.09484 0.5208,-0.2232l0 -3.38856 -1.88704 0.00112c0,1.13253 0.00224,2.2921 0.00224,3.42464 0.124,0.11572 0.2728,0.16945 0.496,0.186l0 0.2232 -1.8104 0c-0.00826,-0.08267 0.00827,-0.15294 0,-0.2356 0.26452,-0.02481 0.42985,-0.10749 0.496,-0.1984 0,-1.12427 0,-2.22374 0,-3.348 -0.05788,-0.14467 -0.23975,-0.26867 -0.496,-0.3472l0 -0.186z"/>
  <polygon class="fil0 str0" points="5.88375,2.41149 8.50186,2.41149 8.50186,2.99692 6.87987,2.99604 6.87986,3.61157 8.37845,3.61157 8.37838,4.35306 6.87105,4.35308 6.87099,5.03607 8.55474,5.03521 8.55477,5.81678 5.88363,5.81678 "/>
  <polygon class="fil0 str0" points="9.37762,4.67726 11.3956,0.26998 13.2278,4.67726 "/>
  <polygon class="fil1 str0" points="11.1603,1.70008 9.89648,4.48668 12.2745,4.48558 "/>
  <path class="fil0 str0" d="M13.3081 2.57227c0,-0.68915 0.19864,-1.22849 0.59694,-1.61802 0.3983,-0.38951 0.91204,-0.58476 1.54226,-0.58476 0.41182,0 0.78412,0.09182 1.11482,0.2745 0.33071,0.18365 0.58342,0.43882 0.7571,0.76648 0.17367,0.3267 0.25998,0.69883 0.25998,1.11348 0,0.42142 -0.09048,0.79838 -0.2735,1.1299 -0.18303,0.33251 -0.44198,0.58381 -0.77685,0.75489 -0.3359,0.17108 -0.69678,0.25614 -1.08467,0.25614 -0.42118,0 -0.79661,-0.09376 -1.12732,-0.28321 -0.33175,-0.18848 -0.58237,-0.44655 -0.75293,-0.77324 -0.17055,-0.32574 -0.25583,-0.67176 -0.25583,-1.03616zm1.17039 0.02109c0,0.64647 0.56762,1.15971 1.009,1.15609 0.52231,-0.00429 0.86667,-0.64437 0.89142,-1.17888 0.02869,-0.6194 -0.21828,-1.36546 -0.94089,-1.3818 -0.65735,-0.01486 -0.95953,0.69949 -0.95953,1.40459z"/>
  <polygon class="fil2" points="0.33905,15.4605 1.35567,15.4605 1.74811,16.6125 2.1388,15.4605 3.15191,15.4605 3.15191,17.3541 2.52075,17.3541 2.52075,15.9102 2.03108,17.3541 1.45989,17.3541 0.97197,15.9102 0.97197,17.3541 0.33905,17.3541 "/>
  <polygon id="1" class="fil2" points="3.64333,15.4605 5.71382,15.4605 5.71382,15.8648 4.41773,15.8648 4.41773,16.1659 5.62007,16.1659 5.62007,16.5522 4.41773,16.5522 4.41773,16.9252 5.75167,16.9252 5.75167,17.3541 3.64333,17.3541 "/>
  <polygon id="12" class="fil2" points="5.99213,15.4605 8.34093,15.4605 8.34093,15.9283 7.55256,15.9283 7.55256,17.3541 6.77992,17.3541 6.77992,15.9283 5.99213,15.9283 "/>
  <path id="123" class="fil2" d="M8.70076 17.3541l0 -1.89366 1.28794 0c0.23873,0 0.42155,0.01543 0.54731,0.04674 0.12636,0.03086 0.22824,0.08818 0.30568,0.17239 0.07744,0.08377 0.11587,0.18606 0.11587,0.30642 0,0.10538 -0.02969,0.19576 -0.08849,0.27204 -0.0594,0.07627 -0.14091,0.138 -0.24397,0.18561 -0.06637,0.02999 -0.15662,0.05512 -0.27133,0.07452 0.09199,0.02336 0.15896,0.04673 0.20146,0.0701 0.02794,0.01543 0.06929,0.0485 0.12343,0.0992 0.05416,0.05115 0.09025,0.08994 0.10831,0.11772l0.3738 0.54892 -0.87338 0 -0.41282 -0.5789c-0.0524,-0.07451 -0.09897,-0.12345 -0.14031,-0.14594 -0.05532,-0.0291 -0.11879,-0.04365 -0.18924,-0.04365l-0.06812 0 0 0.76849 -0.77614 0zm0.77614 -1.1265l0.32606 0c0.03493,0 0.10306,-0.00837 0.20437,-0.02557 0.05124,-0.00793 0.09316,-0.02777 0.12577,-0.05952 0.03202,-0.03174 0.04832,-0.06834 0.04832,-0.10978 0,-0.06129 -0.02561,-0.10802 -0.07685,-0.14065 -0.05124,-0.03307 -0.14731,-0.04938 -0.28822,-0.04938l-0.33945 0 0 0.3849z"/>
  <polygon id="1234" class="fil2" points="11.4385,15.4605 12.2129,15.4605 12.2129,17.3541 11.4385,17.3541 "/>
  <path id="12345" class="fil2" d="M14.4324 16.5804l0.67717 0.1552c-0.04542,0.14373 -0.11704,0.26366 -0.21485,0.36021 -0.09782,0.09656 -0.21951,0.16931 -0.3645,0.21825 -0.14498,0.04938 -0.32954,0.07363 -0.55314,0.07363 -0.27191,0 -0.49432,-0.02998 -0.66609,-0.0895 -0.17234,-0.05997 -0.3214,-0.16534 -0.44659,-0.31613 -0.1246,-0.15079 -0.18747,-0.34346 -0.18747,-0.57846 0,-0.31348 0.11003,-0.55465 0.33012,-0.72263 0.22009,-0.16842 0.53159,-0.25263 0.93394,-0.25263 0.31499,0 0.56245,0.04805 0.74295,0.14461 0.1805,0.09656 0.31442,0.2447 0.40175,0.44443l-0.68239 0.11507c-0.02388,-0.05776 -0.04892,-0.10008 -0.07512,-0.12698 -0.04308,-0.04453 -0.09607,-0.07892 -0.15837,-0.10317 -0.06288,-0.02425 -0.13276,-0.03615 -0.2102,-0.03615 -0.17467,0 -0.30916,0.05335 -0.40233,0.16004 -0.07046,0.07937 -0.10597,0.2037 -0.10597,0.37345 0,0.2103 0.04251,0.35404 0.12635,0.43208 0.08443,0.07803 0.20263,0.11683 0.35459,0.11683 0.14789,0 0.25968,-0.0313 0.33538,-0.09435 0.0757,-0.06261 0.13042,-0.15387 0.16477,-0.2738z"/>
  <path id="123456" class="fil2" d="M15.3501 16.7276l0.73538 -0.03483c0.01573,0.09039 0.04833,0.15917 0.09724,0.20678 0.07918,0.07672 0.1933,0.11464 0.3412,0.11464 0.11004,0 0.19505,-0.0194 0.25502,-0.05864 0.05939,-0.03924 0.08909,-0.08465 0.08909,-0.13624 0,-0.04894 -0.02795,-0.09303 -0.08501,-0.13183 -0.05706,-0.0388 -0.18865,-0.07539 -0.39593,-0.10978 -0.33888,-0.05776 -0.58051,-0.13404 -0.7249,-0.22971 -0.14557,-0.09567 -0.21835,-0.21736 -0.21835,-0.3655 0,-0.09744 0.03727,-0.18959 0.11179,-0.27601 0.07453,-0.08641 0.18632,-0.15431 0.33596,-0.20413 0.14964,-0.04938 0.35459,-0.07407 0.61486,-0.07407 0.31965,0 0.56362,0.04497 0.73131,0.13491 0.16769,0.08994 0.26725,0.23324 0.29927,0.42944l-0.72839 0.03218c-0.01921,-0.08509 -0.05998,-0.14726 -0.12227,-0.18606 -0.06173,-0.03836 -0.14732,-0.05776 -0.2562,-0.05776 -0.09025,0 -0.15779,0.01411 -0.2032,0.04321 -0.04542,0.02866 -0.06813,0.06393 -0.06813,0.10538 0,0.02998 0.01863,0.05687 0.0559,0.08112 0.03669,0.02513 0.12286,0.04806 0.25968,0.06966 0.33771,0.05512 0.57935,0.11111 0.72549,0.16755 0.14615,0.05643 0.2527,0.12609 0.31907,0.20986 0.06639,0.08333 0.10015,0.1768 0.10015,0.28042 0,0.12124 -0.04483,0.23323 -0.13334,0.33552 -0.08849,0.10273 -0.21252,0.18033 -0.37205,0.23323 -0.15896,0.05291 -0.35984,0.07937 -0.60205,0.07937 -0.42505,0 -0.71966,-0.06173 -0.88327,-0.18606 -0.1642,-0.1239 -0.25678,-0.2813 -0.27832,-0.47265z"/>
  <polygon class="fil3 str1" points="16.8512,10.6398 0.84733,11.1044 1.41717,14.6994 16.0849,15.3427 "/>
  <path class="fil4 str0" d="M16.7219 11.4191l0.12784 -0.76976c-0.1708,-0.07129 -0.28832,-0.12994 -0.49547,-0.21386 -0.20715,-0.08391 -0.57909,-0.2324 -0.73053,-0.28961 -0.15145,-0.05722 -0.07345,-0.02968 -0.17756,-0.05347 -0.10412,-0.02379 -0.24122,-0.04324 -0.35537,-0.06626 -0.11414,-0.02302 -0.26506,-0.05475 -0.32951,-0.07187 -0.14252,-0.03785 -0.16717,-0.08487 -0.27902,-0.15595 -0.04002,-0.02542 -0.04435,-0.03915 -0.10654,-0.04901 -0.06219,-0.00986 -0.23827,-0.06058 -0.33679,-0.05462 -0.09853,0.00596 -0.23244,0.08927 -0.34277,0.11312 -0.11033,0.02385 -0.12843,0.03347 -0.23868,0.07517 -0.11024,0.04171 -0.19097,0.07941 -0.32975,0.15149 -0.13879,0.07209 -0.36587,0.19591 -0.50225,0.28071 -0.13637,0.08481 -0.17417,0.12847 -0.31453,0.22724 -0.14036,0.09877 -0.3836,0.28305 -0.52761,0.36536 -0.144,0.08232 -0.22379,0.092 -0.32975,0.12476 -0.10597,0.03276 -0.1976,0.05343 -0.30439,0.07129 -0.10679,0.01786 -0.23813,0.03118 -0.33483,0.03565 -0.0967,0.00446 -0.16257,0.00305 -0.24351,-0.00891 -0.08094,-0.01197 -0.1673,-0.04007 -0.23844,-0.06238 -0.07114,-0.02232 -0.12716,-0.03909 -0.18771,-0.07129 -0.06055,-0.0322 -0.1116,-0.07649 -0.17248,-0.12031 -0.06088,-0.04381 -0.13732,-0.10961 -0.19278,-0.14258 -0.05547,-0.03297 -0.05657,-0.02819 -0.13698,-0.05346 -0.08041,-0.02528 -0.22729,-0.07052 -0.34497,-0.09803 -0.11769,-0.02751 -0.27035,-0.05418 -0.3602,-0.06683 -0.08984,-0.01266 -0.12381,-0.0119 -0.17756,-0.00892 -0.05374,0.00299 -0.07853,0.01038 -0.14204,0.02674 -0.06351,0.01635 -0.12504,0.03041 -0.23844,0.07129 -0.11341,0.04088 -0.30946,0.12104 -0.44137,0.17377 -0.1319,0.05272 -0.24434,0.09802 -0.35004,0.14258 -0.1057,0.04456 -0.17924,0.08094 -0.2841,0.12476 -0.10486,0.04381 -0.24816,0.1068 -0.34497,0.13812 -0.09682,0.03132 -0.16613,0.0408 -0.23337,0.04902 -0.06724,0.00821 -0.10964,0.00521 -0.16741,0 -0.05777,-0.00522 -0.11502,-0.00937 -0.17756,-0.03119 -0.06255,-0.02183 -0.11957,-0.04719 -0.19278,-0.09803 -0.07321,-0.05084 -0.16742,-0.14184 -0.24351,-0.20496 -0.0761,-0.06312 -0.12924,-0.11352 -0.21308,-0.17377 -0.08383,-0.06024 -0.14835,-0.11487 -0.28917,-0.18714 -0.14081,-0.07226 -0.4197,-0.19854 -0.55297,-0.24506 -0.13326,-0.04651 -0.15606,-0.02746 -0.23844,-0.03119 -0.08237,-0.00372 -0.15323,-0.00678 -0.25365,0.00891 -0.10043,0.0157 -0.21238,0.03614 -0.34498,0.08466 -0.1326,0.04852 -0.29424,0.13367 -0.44644,0.20496 -0.15219,0.07129 -0.30601,0.15147 -0.46673,0.22279 -0.16071,0.07131 -0.39731,0.16973 -0.49716,0.20496 -0.09986,0.03522 -0.04527,0.01043 -0.09639,0.00445 -0.05113,-0.00598 -0.11574,-0.02747 -0.208,-0.0401 -0.09227,-0.01263 -0.24344,-0.02822 -0.34498,-0.03565 -0.10153,-0.00742 -0.15501,-0.01711 -0.2638,-0.00891 -0.10879,0.00821 -0.25704,0.03862 -0.38556,0.05793l-0.49212 0.15961c0.10737,0.38814 0.11206,0.5071 0.1664,0.90083l0.16845 0 0.24859 -0.00445 0.36019 0.02673 1.01463 -0.2005 0.4718 -0.17377 0.63415 -0.17377 0.51746 -0.02228 0.45658 0.11584 0.51746 0.35646 1.31902 0.0401 0.38049 0.02228 0.60878 -0.09357 0.6037 -0.25843 0.47688 -0.17377 0.3196 -0.01782 0.81678 0.54359 0.57327 0.30744 0.63414 0.18268 0.59863 -0.2317 0.61385 -0.3609c0.32976,-0.38468 0.77599,-0.92789 0.98927,-1.15402 0.21328,-0.22612 0.15549,-0.15225 0.2841,-0.19605 0.1286,-0.04379 0.28624,-0.07622 0.46165,-0.05792 0.17542,0.01829 0.37542,0.1099 0.56312,0.16486l2.07221 0.75192z"/>
  <path class="fil5 str2" d="M16.8299 10.5784l-0.89193 -2.12659 -0.26506 -0.33257 -0.22721 -0.26606 -0.15146 -0.39909 0.07574 -0.49885 -0.22721 -0.86468 -0.30292 -0.73166 -0.79519 -0.03326 -0.60585 0.13303 -0.79519 0.06651 -0.83305 0.13303 -0.83305 0.03326 -0.94665 0.13303 -0.87093 0.26606 -0.98452 0.4656 -1.17384 -0.06652 -1.17385 -0.16628 -0.90878 -0.13303 -1.28744 -0.26606 -0.3408 0 -0.07573 0.43235 -0.15146 1.13073 -1.13599 2.16171 -1.09811 1.43005 0 1e-005c0.29029,-0.05542 0.57547,-0.13898 0.87091,-0.16628 0.18872,-0.01746 0.37885,0.01995 0.56798,0.03324 0.12647,0.00888 0.258,0.06755 0.37867,0.03326 0.32225,-0.09155 0.60311,-0.27097 0.90877,-0.39909 0.24985,-0.1047 0.4868,-0.24793 0.75735,-0.2993 0.21006,-0.03988 0.44093,-0.0293 0.64372,0.03326 0.27773,0.0857 0.51868,0.2477 0.7573,0.39907 0.21755,0.13799 0.36586,0.3602 0.60587,0.4656 0.15844,0.06957 0.35768,0.06889 0.53012,0.03325 0.26945,-0.05567 0.50558,-0.19823 0.75732,-0.29929 0.19002,-0.0763 0.37493,-0.16265 0.56799,-0.23281 0.17337,-0.06301 0.34483,-0.14023 0.53013,-0.1663 0.13766,-0.01931 0.28043,0.00672 0.41655,0.03327 0.2065,0.04032 0.41661,0.08317 0.60584,0.16628 0.16934,0.0744 0.28266,0.2293 0.45439,0.29932 0.1888,0.07699 0.39821,0.14604 0.60585,0.13304 0.33899,-0.02125 0.68183,-0.09706 0.98451,-0.2328 0.30372,-0.13622 0.52143,-0.38678 0.79517,-0.56539 0.16862,-0.10999 0.34622,-0.21017 0.53015,-0.2993 0.18293,-0.08864 0.36643,-0.18452 0.56798,-0.23279 0.22053,-0.05283 0.4553,-0.09493 0.6816,-0.06653 0.14572,0.01826 0.23652,0.16595 0.37866,0.19956 0.32816,0.0776 0.67573,0.10811 0.98451,0.23279l1.11914 0.39722z"/>
  <path class="fil6 str0" d="M1.12697 12.7901l0.00092 0.00463 -0.15129 -1.04895 1.16543 -0.03484c0.5114,-0.01527 0.76695,-0.08684 1.20303,-0.34813 0.39598,-0.23724 0.66533,-0.60719 1.16543,-0.69623 0.13756,-0.02452 0.29851,-0.00445 0.41353,0.06963 0.56751,0.36554 0.72283,0.72482 1.50378,1.04433 0.17535,0.07177 0.63744,0.02584 0.82709,0 0.75643,-0.10296 1.1471,-0.65914 1.65414,-0.76585 0.15115,-0.03178 0.31729,0.03215 0.45115,0.10445 0.67346,0.36375 1.00937,1.00518 1.7009,1.08826 0.226,0.02715 0.83571,-0.44781 1.45706,-1.05345 0.19794,-0.19292 0.9827,-1.0348 1.24063,-1.07916 0.59468,-0.10227 1.02941,0.5664 1.69528,0.65673l1.32175 0.35719 -0.15736 0.96379 -0.00653 -0.0019 -2.32682 -0.79221c-0.6815,-0.23203 -1.02615,0.42666 -1.31582,0.87029 -0.39336,0.60243 -0.32096,0.82367 -1.05265,1.1836 -0.18911,0.09303 -0.38869,0.23076 -0.60151,0.20887 -0.26512,-0.02727 -1.45854,-0.61778 -1.69176,-0.76586 -0.16144,-0.10251 -0.19421,-0.35043 -0.37594,-0.41774 -0.12532,-0.04641 -0.27254,0.05896 -0.37595,0.13924 -1.21285,0.94162 -1.64308,-0.06173 -3.25846,0.12136 -0.32932,0.03733 -0.92368,0.36928 -1.25289,0.3312 -0.38987,-0.0451 -0.49205,-1.05109 -1.13567,-0.92469 -0.31137,0.06113 -0.77926,1.10236 -0.93204,1.09875 -0.40437,-0.00959 -0.77696,-0.20887 -1.16543,-0.31331z"/>
  <path class="fil7 str3" d="M9.87937 5.85775c0.01263,0.22168 0.02526,0.45452 0.03789,0.66513 0.0126,0.21062 0.04424,0.45847 0.03785,0.59864 -0.00638,0.14014 -0.06929,0.14792 -0.07574,0.23279 -0.00642,0.08485 0.02526,0.16074 0.03789,0.26604 0.0126,0.10532 0.04418,0.1159 0.03785,0.36586 -0.0063,0.24992 -0.06941,0.80331 -0.07574,1.13074 -0.00631,0.3274 0.03157,0.60411 0.03789,0.83142 0.00631,0.22728 0,0.35471 0,0.5321l0 0.34516m1.66369 0.16506c-0.0502,-0.28404 -0.11795,-0.56958 -0.14905,-0.84277 -0.03162,-0.27757 -0.01892,-0.58733 -0.03785,-0.79819 -0.01896,-0.21088 -0.08214,-0.30795 -0.07576,-0.46561 0.00641,-0.15764 0.07576,-0.32696 0.11361,-0.46559 0.03788,-0.13863 0.12671,-0.21014 0.11359,-0.36582 -0.01312,-0.15566 -0.15123,-0.37037 -0.18933,-0.53211 -0.0381,-0.16178 -0.02523,-0.28823 -0.03787,-0.43234 -0.01262,-0.14408 -0.03155,-0.27704 -0.03785,-0.43237 -0.00632,-0.15529 0,-0.33256 0,-0.49882l0 -0.29932 0 -0.16629m-10.0014 4.81805l0.57278 0.00422c0.32816,-0.06652 0.70029,-0.13299 0.98451,-0.19956 0.28419,-0.06655 0.46657,-0.14403 0.71946,-0.19954 0.25286,-0.0555 0.37214,-0.11333 0.72471,-0.10207 0.35257,0.01126 0.9214,0.14413 1.28745,0.19954 0.36604,0.05545 0.62476,0.2744 0.90874,0.31873 0.28405,0.04432 0.44483,0.02635 0.72477,0.00922 0.27994,-0.01711 0.65301,-0.30638 0.93874,-0.35658 0.28576,-0.05022 0.54512,0.00648 0.83567,-0.00465 0.29058,-0.01106 0.5752,-0.0808 0.87093,0 0.29574,0.08085 0.57051,0.38495 0.83306,0.46563 0.26254,0.08068 0.43308,0.03357 0.68158,0 0.24851,-0.0336 0.62987,-0.14095 0.86568,-0.2305 0.23581,-0.08956 0.36515,-0.22687 0.60583,-0.33255 0.2407,-0.1057 0.5943,-0.26797 0.86213,-0.32956 0.26785,-0.06158 0.44069,-0.02568 0.65776,-0.02006 0.8446,0.02178 1.57037,0.39162 2.38033,0.64891m-14.9192 -0.56537l0.49224 -0.03325 0.60586 -0.0665c0.2272,-0.03328 0.43529,-0.07206 0.68161,-0.0998 0.24624,-0.02771 0.54233,-0.03321 0.79513,-0.06651 0.25286,-0.0333 0.46823,-0.13299 0.71948,-0.13299 0.25124,0 0.49662,0.11626 0.75732,0.13299 0.2607,0.01674 0.53639,-0.01663 0.7952,-0.03324 0.25882,-0.01665 0.48258,-0.08335 0.75732,-0.06652 0.27468,0.01683 0.5991,0.12744 0.87091,0.16627 0.27181,0.03884 0.48525,0.06098 0.75732,0.06652 0.27203,0.00557 0.58856,-0.06707 0.87092,-0.03326 0.28234,0.03383 0.53403,0.18805 0.7952,0.23278 0.26112,0.04477 0.49593,0.05566 0.75732,0.03328 0.26133,-0.0224 0.52944,-0.12739 0.79516,-0.16629 0.2657,-0.03887 0.51744,-0.04989 0.79518,-0.06651 0.27777,-0.01661 0.46715,-0.10324 0.74676,-0.14231 0.27962,-0.03904 0.61988,-0.05692 0.91937,-0.09048 0.29946,-0.03355 0.69353,-0.0511 0.98453,0 0.291,0.05111 0.51049,0.19953 0.75032,0.2993m-14.1549 -0.83143c0.39128,0.02218 0.874,0.07773 1.17387,0.06652 0.29983,-0.01117 0.38489,-0.08868 0.6058,-0.13301 0.22097,-0.04438 0.4857,-0.09977 0.71949,-0.13305 0.23372,-0.03328 0.44622,-0.10094 0.68159,-0.06649 0.23535,0.03445 0.4736,0.22611 0.68157,0.26603 0.20796,0.03997 0.32167,-0.01104 0.53016,-0.03325 0.20842,-0.02217 0.46662,-0.07757 0.71944,-0.09977 0.2528,-0.02217 0.51581,-0.04999 0.7952,-0.03325 0.27934,0.01672 0.62841,0.1218 0.87092,0.13302 0.24247,0.01123 0.41012,-0.04432 0.56797,-0.06651 0.15783,-0.02217 0.19032,-0.0893 0.37868,-0.06651 0.1883,0.02283 0.48206,0.17138 0.71943,0.19954 0.23734,0.02816 0.42204,9e-005 0.68159,-0.03327 0.25953,-0.03334 0.6108,-0.09386 0.87091,-0.16627 0.2601,-0.07243 0.41368,-0.20444 0.68162,-0.26602 0.26789,-0.06165 0.60525,-0.08314 0.90875,-0.09981 0.30352,-0.01666 0.64332,-0.0111 0.90879,0 0.26548,0.0111 0.46951,0.01008 0.68158,0.06653 0.21205,0.05642 0.37867,0.17736 0.568,0.26603m-13.4424 -0.39909l0.90877 0.06653 0.64375 -0.06653 0.83307 -0.06649 0.94662 -0.06653 0.75735 -0.09976 0.6437 -0.03325 0.53008 -0.0665 0.83308 -0.09976 0.83307 -0.09979 0.7573 -0.03329 0.49227 0 0.49227 0.03329 0.64369 -0.03329 0.83307 -0.13298 0.87094 -0.1663 0.60581 -0.06655 0.41658 0.03328 0.71943 0.19957m-12.4201 -0.03329c0.30294,0.01109 0.5867,0.03325 0.90878,0.03325 0.32213,0 0.73823,-0.01661 1.02238,-0.03325 0.28422,-0.01661 0.47706,-0.07216 0.6816,-0.0665 0.20458,0.00559 0.35937,0.07755 0.53013,0.09975 0.17076,0.02223 0.27526,0.05569 0.49228,0.03328 0.21702,-0.02242 0.56769,-0.12746 0.79517,-0.1663 0.22748,-0.03884 0.3534,-0.04433 0.56797,-0.06652 0.21461,-0.02215 0.49224,-0.04987 0.7195,-0.0665 0.22724,-0.0166 0.42251,-0.01106 0.64369,-0.03324 0.2212,-0.02223 0.42905,-0.05543 0.68158,-0.0998 0.25255,-0.04434 0.58687,-0.12192 0.83307,-0.16629 0.24618,-0.04434 0.42908,-0.07203 0.64374,-0.09976 0.21461,-0.02774 0.39746,-0.03325 0.64371,-0.06651 0.24623,-0.03328 0.56785,-0.0831 0.83302,-0.13303 0.26524,-0.04991 0.53484,-0.13838 0.75737,-0.16627 0.22246,-0.02796 0.37864,0 0.56796,0l0.60586 0.06648 0.41653 -0.03326m-12.155 0.13305l1.02238 0.03328 0.56798 0.09975 0.49228 0.09974 0.60584 0 0.45436 0.03328 0.56802 0 0.6816 -0.13302 0.71943 -0.09975 0.64371 -0.1996 0.56803 -0.2993 0.45438 -0.1995 0.68157 -0.0998 0.94666 -0.03326 1.62822 -0.16626 0.87095 -0.06652 0.60587 -0.03333 0.34076 0m-12.0792 5.18816l0.63219 -1.32193c0.06692,-0.23559 0.09923,-0.48094 0.20085,-0.70674 0.1059,-0.23532 0.29954,-0.43392 0.41654,-0.66516 0.13618,-0.26915 0.2398,-0.55052 0.34078,-0.83141 0.05071,-0.14103 0.0702,-0.28943 0.1136,-0.43234l0.15147 -0.49886 0 -0.26604m1.28745 0.19954c-0.02524,0.15518 -0.03561,0.31283 -0.07575,0.46558 -0.07368,0.28043 -0.17501,0.55469 -0.26505,0.83144 -0.11191,0.34405 -0.22434,0.68804 -0.34076,1.03094 -0.09817,0.28899 -0.19956,0.57714 -0.30295,0.86469 -0.04809,0.13373 -0.10562,0.26482 -0.15147,0.39911l-0.1136 0.33256m1.5525 0.90632l0.08279 -0.86378c0.07571,-0.27714 0.06684,-0.66373 0.14442,-0.9405 0.12437,-0.44379 0.25848,-0.88553 0.37864,-1.33026 0.05657,-0.20941 0.10343,-0.42083 0.15147,-0.6319 0.05289,-0.23237 0.15146,-0.4614 0.15146,-0.69839l0 -0.19954m0.82827 4.1901c-0.01259,-0.14413 -0.03821,-0.25433 -0.03307,-0.39881 0.00751,-0.21167 0.03731,-0.42279 0.07574,-0.63188 0.02484,-0.13535 0.0642,-0.26899 0.11357,-0.39911 0.02678,-0.07051 0.09458,-0.12703 0.1136,-0.19951 0.01986,-0.07561 0.01168,-0.15589 0,-0.23279 -0.01373,-0.09061 -0.07572,-0.17464 -0.07572,-0.26605 0,-0.15676 0.03243,-0.31352 0.07572,-0.46561 0.04551,-0.15986 0.15255,-0.30401 0.18936,-0.46559 0.01505,-0.06614 -0.03362,-0.13222 -0.03785,-0.19956 -0.00842,-0.1328 -0.00662,-0.26617 0,-0.39909 0.00601,-0.12231 0.03785,-0.24339 0.03785,-0.36582l0 -0.29932m4.61028 3.57833c-0.0252,-0.12194 -0.02852,-0.16941 -0.06638,-0.31914 -0.03788,-0.14974 -0.12602,-0.35899 -0.15149,-0.53208 -0.02541,-0.17317 0,-0.34369 0,-0.49888 0,-0.15519 0.01903,-0.25994 0,-0.43235 -0.01898,-0.17238 -0.0694,-0.36028 -0.11358,-0.59862 -0.04416,-0.23832 -0.10716,-0.64248 -0.15145,-0.83142 -0.04431,-0.18894 -0.10075,-0.16388 -0.11361,-0.29931 -0.01283,-0.13544 0.02524,-0.33257 0.03788,-0.49887l-0.03788 -0.43235m2.43906 4.45645c-0.0505,-0.15519 -0.10897,-0.31248 -0.16707,-0.46558 -0.0682,-0.17971 -0.19176,-0.34527 -0.22723,-0.53213 -0.02912,-0.15346 0.0379,-0.31002 0.0379,-0.46559 0,-0.19985 -0.0068,-0.40065 -0.0379,-0.59861 -0.01966,-0.12521 -0.0569,-0.24968 -0.1136,-0.36585 -0.05797,-0.11884 -0.16392,-0.21582 -0.22719,-0.33257 -0.06348,-0.11713 -0.11437,-0.24022 -0.15146,-0.36584 -0.05158,-0.17467 -0.08644,-0.35317 -0.11361,-0.5321 -0.02339,-0.15421 0.01081,-0.31597 -0.03784,-0.46558l-0.15148 -0.46561"/>
  <ellipse class="fil0 str4" cx="3.51157" cy="9.41867" rx="0.404986" ry="0.405533"/>
  <ellipse class="fil0 str4" cx="4.61429" cy="7.35707" rx="0.404986" ry="0.405533"/>
  <ellipse class="fil0 str4" cx="7.53887" cy="9.89811" rx="0.404986" ry="0.405533"/>
  <ellipse class="fil0 str4" cx="12.9565" cy="5.63109" rx="0.404986" ry="0.405533"/>
  <ellipse class="fil0 str4" cx="13.9634" cy="8.69951" rx="0.404986" ry="0.405533"/>
  <ellipse class="fil0 str4" cx="10.6552" cy="7.83651" rx="0.404986" ry="0.405533"/>
  <ellipse class="fil0 str4" cx="8.87723" cy="8.59851" rx="0.404986" ry="0.405533"/>
  <ellipse class="fil0 str4" cx="7.20326" cy="7.54885" rx="0.404986" ry="0.405533"/>
 </g>
</svg>
